<?xml version="1.0" standalone="no"?>
<!DOCTYPE svg PUBLIC "-//W3C//DTD SVG 20010904//EN"
 "http://www.w3.org/TR/2001/REC-SVG-20010904/DTD/svg10.dtd">
<svg version="1.0" xmlns="http://www.w3.org/2000/svg"
 width="300.000000pt" height="300.000000pt" viewBox="0 0 300.000000 300.000000"
 preserveAspectRatio="xMidYMid meet">
<metadata>
Created by potrace 1.10, written by Peter Selinger 2001-2011
</metadata>
<g transform="translate(0.000000,300.000000) scale(0.100000,-0.100000)"
fill="#000000" stroke="none">
<path d="M1440 2911 c-78 -25 -117 -63 -106 -105 5 -19 -92 -120 -619 -647
l-625 -624 0 -65 0 -64 309 -311 c303 -304 308 -311 304 -345 -6 -45 19 -70
79 -77 41 -5 58 -20 363 -324 300 -298 323 -319 356 -319 26 0 46 9 75 34 64
55 121 79 171 73 45 -5 83 -30 83 -54 0 -7 -20 -18 -44 -25 -50 -13 -51 -28
-2 -28 22 0 40 8 56 25 21 23 22 27 10 50 -31 57 -86 73 -170 50 -19 -5 -10 7
37 52 l63 58 -35 28 c-32 26 -50 26 -24 0 9 -9 -6 -31 -56 -87 -90 -100 -107
-111 -143 -92 -15 8 -37 26 -50 41 -13 15 -26 25 -28 22 -12 -12 27 -65 56
-77 21 -9 28 -16 21 -23 -7 -7 -19 -6 -38 2 -16 6 -164 147 -328 312 l-300
300 31 28 c55 50 53 85 -6 142 -15 15 -30 33 -33 40 -4 10 -6 9 -6 -2 -1 -9
-13 -20 -27 -23 -22 -6 -34 -1 -62 26 -19 18 -131 127 -249 243 -118 115 -223
215 -234 223 -25 18 -24 38 4 47 20 6 19 7 -11 15 -30 7 -67 31 -83 54 -22 29
19 73 599 639 45 44 82 85 82 91 0 6 -35 -23 -77 -64 -43 -42 -96 -91 -118
-110 l-40 -35 30 34 c35 40 55 61 395 411 140 144 261 272 268 286 14 27 27
31 36 9 3 -8 9 -14 13 -13 4 1 19 -4 31 -11 l24 -13 -22 29 c-28 38 -30 92 -4
107 98 58 241 20 226 -61 -2 -15 -10 -35 -17 -43 -11 -12 -11 -17 1 -28 11
-10 15 -8 20 13 3 14 15 30 25 36 16 8 21 6 28 -13 12 -29 69 -88 87 -88 7 0
18 -9 24 -21 9 -16 5 -31 -24 -85 -20 -36 -36 -68 -36 -73 0 -4 11 -13 25 -19
27 -12 26 -13 57 47 17 33 16 51 -3 51 -5 0 -8 -5 -7 -11 2 -6 -3 -14 -10 -16
-11 -4 -12 -1 -3 16 7 11 9 21 6 21 -2 0 3 9 12 20 9 11 19 17 21 15 3 -3 0
-11 -7 -19 -21 -25 13 -26 36 -1 l20 24 -28 11 c-15 7 -31 13 -35 14 -4 0 -32
28 -63 61 -31 33 -64 66 -74 73 -11 9 -15 21 -11 36 7 28 -24 68 -68 89 -41
19 -125 28 -158 18z m350 -421 c-11 -21 -35 -26 -45 -10 -3 5 0 18 7 29 9 15
16 17 30 10 15 -8 16 -14 8 -29z m-1626 -978 c-7 -35 41 -96 185 -235 52 -51
171 -166 264 -258 l170 -165 -28 -18 -28 -18 -299 298 c-165 165 -304 308
-310 318 -8 15 -7 22 6 31 9 7 16 15 16 18 0 11 20 57 25 57 2 0 2 -13 -1 -28z
m691 -662 c4 -11 20 -27 36 -35 16 -9 29 -20 29 -25 0 -13 -13 -13 -28 0 -9 7
-9 7 -2 -2 14 -17 12 -34 -2 -20 -7 7 -17 12 -22 12 -6 0 -5 -4 3 -9 12 -8 12
-12 -1 -25 -14 -14 -17 -14 -28 0 -7 8 -15 12 -18 9 -3 -2 1 -11 8 -20 7 -8
10 -15 7 -15 -7 0 -82 77 -84 87 -2 9 74 63 88 63 4 0 11 -9 14 -20z m-64
-148 c-44 -5 -71 13 -71 47 0 44 11 44 57 -1 l44 -43 -30 -3z"/>
<path d="M1895 2852 c-13 -23 -29 -38 -43 -40 -13 -2 -26 -10 -29 -18 -8 -21
6 -32 17 -14 11 17 60 21 60 5 0 -5 -7 -19 -15 -29 -20 -27 -19 -33 6 -31 21
1 68 51 69 73 0 14 16 16 25 3 3 -6 -3 -15 -14 -21 -12 -6 -18 -16 -15 -25 4
-9 -4 -19 -20 -26 -20 -10 -23 -15 -15 -26 9 -10 8 -13 -4 -13 -8 0 -18 -7
-21 -16 -3 -8 -11 -12 -17 -9 -7 5 -4 13 7 26 15 17 15 19 1 19 -9 0 -21 -8
-26 -17 -9 -15 -10 -13 -9 12 1 17 8 40 16 53 8 13 10 22 4 22 -16 0 -43 -30
-37 -41 4 -5 2 -9 -4 -9 -16 0 -22 18 -9 23 8 3 5 6 -6 6 -15 1 -17 -3 -11
-21 4 -13 8 -36 10 -52 1 -17 8 -32 16 -34 8 -3 22 -12 32 -21 17 -14 19 -14
28 2 6 9 16 17 24 17 8 0 22 16 30 36 8 20 31 58 51 86 36 48 36 49 18 69 -22
24 -39 34 -74 42 -22 5 -28 1 -45 -31z"/>
<path d="M1119 2473 c-130 -131 -239 -246 -242 -255 -10 -29 3 -20 14 10 6 15
13 22 16 16 5 -14 80 60 89 88 5 16 8 18 15 7 7 -11 9 -11 9 2 0 9 7 19 15 23
8 3 15 13 15 21 0 9 3 14 8 12 12 -8 58 35 87 82 17 28 30 40 34 32 6 -9 11
-8 20 3 7 8 10 20 6 26 -3 5 -2 10 3 10 21 0 154 129 150 146 -2 8 -102 -85
-239 -223z"/>
<path d="M1646 2695 c-8 -23 -8 -37 2 -31 15 9 35 -12 28 -29 -4 -11 -13 -15
-26 -12 -11 3 -20 1 -20 -4 0 -14 34 -11 56 5 17 13 22 12 42 -6 12 -12 22
-27 22 -35 0 -7 5 -13 10 -13 23 0 6 29 -49 84 -47 46 -59 54 -65 41z"/>
<path d="M1360 2607 c0 -14 -7 -30 -15 -37 -8 -7 -17 -28 -21 -48 -6 -30 -3
-39 19 -58 50 -43 177 -79 192 -54 3 6 21 10 38 10 40 0 93 31 102 60 7 22 7
22 21 2 8 -11 11 -27 8 -36 -7 -18 7 -21 23 -5 8 8 11 6 10 -7 -2 -23 26 -26
31 -3 2 10 -9 21 -28 29 -17 7 -29 18 -27 24 2 6 0 15 -5 21 -5 5 -23 30 -40
55 l-32 45 -10 -35 c-12 -44 -15 -48 -25 -31 -6 10 -11 9 -24 -4 -21 -21 -145
-11 -164 13 -12 14 -13 14 -13 -2 0 -10 9 -29 20 -43 26 -33 25 -53 0 -53 -23
0 -60 54 -59 85 0 11 3 14 6 8 11 -28 20 -11 13 24 -5 20 -7 40 -4 44 2 4 0
10 -6 14 -6 3 -10 -4 -10 -18z m283 -99 c-6 -26 -49 -68 -70 -68 -18 0 -16 40
4 62 19 21 39 23 46 6 3 -8 6 -6 6 5 1 9 5 17 10 17 5 0 7 -10 4 -22z m-115
-14 c28 -20 28 -42 -1 -55 -51 -23 -106 33 -59 60 24 14 34 13 60 -5z"/>
<path d="M1587 2610 c-3 -11 -1 -20 5 -20 5 0 6 -5 2 -12 -4 -7 -3 -8 4 -4 14
8 16 56 3 56 -5 0 -11 -9 -14 -20z"/>
<path d="M1851 2555 c-10 -28 -9 -29 5 -10 13 17 16 18 24 5 5 -8 10 -19 10
-24 0 -5 51 -61 113 -125 90 -92 468 -479 486 -497 2 -2 0 -4 -5 -4 -5 0 -99
87 -209 194 -110 107 -202 192 -205 189 -3 -3 165 -172 373 -377 297 -292 379
-378 383 -402 5 -29 -2 -39 -103 -140 -59 -60 -207 -204 -328 -321 -279 -268
-459 -449 -464 -465 -2 -7 142 131 320 307 178 176 382 377 452 445 70 69 130
135 134 147 9 39 -5 68 -54 116 -26 26 -45 49 -41 52 11 11 128 -125 128 -150
0 -13 8 -28 17 -33 15 -9 13 -14 -14 -48 -17 -22 -240 -247 -496 -500 -321
-319 -466 -470 -469 -488 -4 -22 -3 -24 9 -14 12 10 13 7 7 -18 -4 -16 -14
-34 -23 -41 -12 -10 -13 -12 -2 -13 11 0 11 -3 1 -15 -11 -13 -15 -13 -21 -3
-7 10 -9 10 -9 -2 0 -10 -12 -16 -36 -18 -27 -2 -35 1 -31 12 4 9 -2 13 -15
12 -12 0 -22 6 -24 14 -1 8 -7 37 -12 63 -13 64 -9 136 7 146 11 7 10 14 -2
37 l-15 29 -7 -40 c-3 -22 -11 -59 -16 -81 -9 -33 -8 -47 4 -70 8 -16 13 -41
10 -55 -3 -16 1 -32 12 -42 9 -10 13 -17 9 -17 -4 0 6 -11 24 -23 17 -13 29
-27 25 -30 -3 -4 -1 -7 5 -7 7 0 18 -15 26 -33 11 -27 25 -37 71 -55 71 -27
136 -29 158 -4 31 34 21 63 -43 123 -52 49 -61 62 -66 103 l-7 47 481 482
c294 295 483 492 487 507 3 14 3 45 1 69 -4 43 -14 54 -529 570 l-525 526 -11
-30z m689 -700 c18 -19 32 -37 29 -39 -2 -2 -21 13 -41 35 -21 21 -34 39 -30
39 5 0 23 -16 42 -35z m105 -114 c-7 -6 -65 50 -65 63 0 5 16 -5 35 -24 19
-18 32 -36 30 -39z m55 -46 c18 -19 32 -36 29 -38 -2 -2 -21 13 -42 34 -21 22
-35 39 -30 39 5 0 24 -16 43 -35z m-724 -1387 c4 -6 3 -9 -2 -5 -5 3 -18 -1
-29 -10 -20 -15 -20 -15 0 -12 11 1 31 -3 45 -9 l25 -11 -26 0 c-14 -1 -34 -8
-45 -16 -22 -17 -34 -19 -34 -6 0 5 9 13 21 16 11 4 18 9 16 12 -3 2 -15 -1
-27 -7 -25 -13 -42 -4 -20 11 12 8 10 10 -7 6 -13 -3 -26 -1 -29 4 -6 11 36
28 52 22 7 -2 15 0 19 6 8 14 32 14 41 -1z m-78 -107 c20 -10 25 -9 40 9 12
15 33 24 62 27 38 4 47 1 57 -16 11 -17 10 -22 -6 -30 -21 -11 -154 -7 -174 6
-6 4 -16 8 -22 8 -5 0 -11 9 -14 20 -3 19 -2 19 15 4 11 -9 29 -22 42 -28z"/>
<path d="M1261 2497 c-24 -17 -49 -44 -57 -63 -18 -43 -28 -44 -20 -1 5 32 5
32 -8 7 -8 -14 -12 -28 -10 -32 3 -4 0 -34 -5 -65 -6 -32 -13 -76 -16 -98 -3
-22 -8 -45 -10 -51 -2 -6 0 -17 5 -24 4 -7 2 -29 -6 -49 -13 -33 -13 -34 1
-17 8 11 15 25 15 32 0 7 10 20 22 28 12 9 18 19 14 23 -4 4 -11 1 -16 -7 -15
-25 -25 -1 -12 30 23 57 32 85 37 122 3 21 11 43 18 50 30 33 57 79 52 88 -3
6 0 10 8 10 17 0 40 25 35 38 -1 4 -23 -5 -47 -21z m-1 -34 c-1 -5 -12 -21
-25 -38 -28 -33 -34 -18 -9 20 16 24 34 33 34 18z"/>
<path d="M1826 2504 c-4 -9 -5 -18 -4 -18 2 -1 15 -7 31 -14 16 -7 27 -19 27
-31 0 -14 5 -18 19 -14 14 4 24 -3 35 -25 16 -31 60 -65 70 -55 10 10 -116
133 -136 133 -9 0 -20 5 -24 12 -5 8 -2 9 11 4 15 -5 16 -4 5 9 -16 19 -26 19
-34 -1z"/>
<path d="M1297 2440 c-10 -16 -15 -30 -12 -30 3 0 -7 -13 -22 -28 -32 -32 -57
-72 -45 -72 4 0 15 13 25 29 13 22 22 28 39 23 14 -3 19 -1 14 6 -3 6 3 16 14
22 11 6 18 15 15 20 -3 4 0 10 6 12 12 4 3 48 -10 48 -3 0 -15 -13 -24 -30z"/>
<path d="M1670 2432 c0 -7 -3 -11 -7 -11 -23 4 -33 -3 -33 -24 0 -34 -29 -71
-45 -57 -10 8 -14 5 -19 -15 -3 -13 -20 -40 -37 -60 -26 -29 -34 -33 -50 -24
-11 5 -18 16 -17 24 2 8 -6 20 -16 28 -11 8 -21 27 -22 43 -2 28 0 29 37 28
22 -1 42 -4 46 -8 10 -10 53 -7 53 4 0 14 -37 26 -87 29 -35 1 -45 -2 -58 -23
-15 -23 -15 -30 -2 -75 12 -40 12 -48 1 -44 -8 3 -20 -9 -30 -31 -10 -19 -21
-33 -26 -30 -4 3 -6 -1 -3 -8 5 -17 -57 -142 -70 -140 -5 1 -13 16 -16 34 -7
34 -13 14 -9 -29 1 -19 -7 -69 -24 -152 -9 -43 -25 -49 -48 -18 -11 15 -27 27
-36 26 -13 0 -11 -3 6 -11 12 -6 25 -21 28 -34 7 -27 31 -39 50 -23 7 6 16 36
20 67 15 124 46 156 150 151 l66 -4 31 53 c22 40 27 56 18 62 -9 5 -7 9 6 12
20 5 160 254 149 265 -3 4 -6 1 -6 -5z m-188 -213 c13 -7 23 -7 32 0 14 12 26
5 26 -16 0 -7 -11 -13 -25 -13 -14 0 -25 6 -25 13 0 8 -3 8 -9 -2 -5 -8 -21
-15 -37 -17 -15 -2 -30 -8 -34 -15 -10 -15 0 -50 11 -43 5 3 7 10 4 15 -4 5
-1 9 4 9 6 0 11 7 11 15 0 8 5 15 11 15 6 0 9 -7 5 -15 -4 -11 1 -15 19 -15
14 0 25 -5 25 -11 0 -6 -9 -9 -20 -6 -11 3 -18 1 -14 -4 3 -5 -7 -9 -21 -9
-17 0 -25 -5 -22 -12 2 -7 15 -12 28 -10 23 3 23 2 5 -13 -21 -16 -66 -21 -66
-7 0 4 5 13 12 20 9 9 7 17 -11 36 -21 23 -21 24 -5 58 13 28 22 35 47 36 17
0 39 -4 49 -9z m-92 -113 c0 -7 -7 -21 -16 -32 -15 -19 -16 -19 -9 0 6 19 5
19 -15 1 -24 -22 -25 -19 -5 30 13 30 18 35 30 25 8 -7 15 -18 15 -24z"/>
<path d="M1781 2416 c-8 -13 -10 -30 -6 -37 5 -8 4 -10 -3 -5 -18 11 -15 3 23
-59 19 -32 32 -61 30 -65 -3 -4 4 -32 15 -61 11 -30 18 -40 14 -24 -3 17 -9
50 -13 75 -5 25 -18 65 -31 89 -16 32 -20 53 -15 77 7 40 3 43 -14 10z"/>
<path d="M1723 2387 c1 -15 -3 -21 -14 -19 -22 3 -33 -26 -17 -46 11 -13 10
-15 -6 -9 -15 6 -16 5 -8 -6 6 -7 7 -18 3 -26 -7 -10 -13 -11 -31 -1 -12 6
-24 9 -28 6 -3 -3 0 -6 6 -6 7 0 12 -5 12 -11 0 -5 -6 -7 -12 -4 -7 4 -2 -2
12 -13 l24 -20 43 76 c48 87 48 88 28 96 -10 4 -14 -1 -12 -17z"/>
<path d="M1302 2360 c-7 -11 -16 -19 -20 -17 -11 3 -62 -57 -62 -73 0 -6 5 -8
11 -4 8 5 8 1 0 -14 -6 -11 -11 -30 -11 -41 0 -12 -4 -21 -9 -21 -5 0 -19 -21
-32 -47 -12 -27 -29 -52 -36 -56 -7 -4 -13 -22 -12 -40 0 -18 3 -26 6 -19 7
17 33 15 55 -5 21 -19 20 -20 41 36 12 32 14 49 6 63 -6 11 -8 26 -5 34 3 8 0
14 -6 14 -7 0 -8 -12 -4 -32 6 -31 -11 -98 -25 -98 -4 0 -11 5 -14 10 -4 6
-11 8 -16 5 -14 -9 -11 12 4 27 7 7 19 32 26 56 10 28 20 42 32 42 19 0 35 33
24 50 -3 5 -2 10 2 10 5 0 9 9 9 20 0 11 -4 20 -8 20 -4 0 -8 4 -8 9 0 4 11 6
24 4 13 -3 27 0 30 6 5 7 1 8 -10 4 -12 -4 -15 -3 -10 5 4 7 2 12 -3 12 -6 0
-11 4 -11 9 0 4 10 6 23 4 18 -4 23 0 25 21 2 31 0 32 -16 6z"/>
<path d="M1689 2238 c-28 -57 -69 -136 -91 -177 l-39 -73 50 -47 c59 -53 70
-85 42 -121 l-19 -24 -51 24 c-28 13 -51 27 -51 32 0 11 7 10 33 -6 33 -21 67
-29 67 -17 0 6 -7 11 -15 11 -9 0 -34 9 -56 21 -23 11 -38 16 -35 11 8 -14
-64 -41 -102 -38 -51 4 -56 17 -27 67 13 24 25 36 25 27 0 -9 -4 -20 -10 -23
-5 -3 -10 -16 -10 -27 0 -20 1 -20 18 -5 14 13 17 28 14 69 -2 29 -3 61 -3 70
0 10 -11 19 -28 23 -31 7 -85 -10 -77 -24 3 -5 -1 -11 -9 -15 -8 -3 -15 -14
-15 -25 0 -11 -6 -21 -12 -24 -7 -2 4 -12 25 -22 33 -16 36 -20 24 -34 -24
-27 -27 -49 -12 -78 8 -15 15 -25 15 -20 0 4 18 -2 40 -13 54 -28 51 -17 -5
16 -49 28 -55 46 -25 84 25 33 34 21 14 -19 -9 -18 -14 -33 -13 -35 2 -1 22
-13 43 -26 l39 -23 18 22 c28 34 42 21 19 -17 -12 -20 -25 -30 -32 -26 -7 4
-8 3 -4 -4 11 -18 38 -14 100 14 32 14 60 23 63 20 3 -3 -21 -31 -55 -63 -49
-48 -59 -62 -52 -78 13 -32 11 -38 -10 -32 -11 3 -18 1 -14 -4 3 -5 12 -9 20
-9 11 0 13 -6 9 -20 -4 -11 -2 -20 4 -20 13 0 15 -76 2 -84 -5 -3 -11 1 -15 9
-3 8 -17 15 -30 15 -20 0 -24 -4 -19 -17 4 -11 8 -13 11 -5 3 10 7 10 17 2 16
-13 9 -40 -10 -40 -6 0 -17 10 -23 23 l-11 22 0 -23 c-1 -17 7 -26 29 -33 17
-6 30 -15 30 -20 0 -17 -31 -22 -43 -7 -18 23 -45 29 -51 12 -4 -10 2 -14 19
-14 27 0 33 -18 13 -38 -9 -9 -16 -8 -30 5 -16 15 -18 15 -18 0 0 -9 5 -19 10
-22 16 -10 12 -28 -5 -21 -8 3 -15 1 -15 -4 0 -16 43 -11 70 7 34 24 48 41 71
93 18 39 20 56 14 125 -10 127 -11 125 51 182 30 28 66 54 79 57 16 4 27 16
31 33 7 25 8 25 15 8 7 -18 8 -18 8 3 1 13 -4 32 -9 43 -8 13 -7 19 0 19 6 0
13 -13 16 -30 7 -30 34 -64 34 -41 0 19 -39 91 -50 92 -6 1 -15 2 -22 3 -12 1
-40 47 -33 54 2 2 13 -1 24 -7 17 -9 20 -9 15 3 -3 8 -21 20 -40 26 -19 6 -34
15 -34 18 0 4 12 25 26 45 26 38 77 144 78 161 1 5 9 10 20 12 29 4 44 23 26
34 -8 5 -12 10 -7 11 25 5 33 3 44 -11 11 -13 12 -13 13 2 0 18 -33 42 -44 31
-5 -6 -10 20 -7 40 4 24 -15 -5 -60 -95z m-314 -258 c4 -12 1 -28 -6 -36 -16
-20 -53 -14 -57 9 -8 41 51 66 63 27z"/>
<path d="M1790 2206 c0 -19 4 -37 9 -41 5 -3 15 -30 21 -60 6 -30 16 -55 21
-55 13 0 11 23 -7 77 -9 26 -17 53 -18 60 -1 7 -5 15 -8 19 -4 3 -4 12 -1 20
3 8 0 14 -6 14 -6 0 -11 -15 -11 -34z"/>
<path d="M1580 2211 c0 -6 3 -11 8 -11 4 0 13 -9 20 -21 11 -18 11 -20 -5 -17
-10 2 -23 10 -30 18 -8 10 -12 11 -13 3 0 -6 5 -15 10 -18 6 -4 7 -12 3 -18
-4 -7 1 -6 11 2 16 13 17 12 12 -15 -2 -16 -5 -31 -5 -33 -1 -2 -7 1 -13 6
-24 19 -46 22 -52 8 -3 -8 0 -12 7 -9 7 2 18 -5 24 -15 11 -17 10 -20 -7 -18
-11 1 -20 5 -20 9 0 4 -5 8 -11 8 -8 0 -8 -5 1 -15 7 -8 16 -12 21 -9 5 3 7
-5 5 -18 -4 -25 -24 -26 -42 -2 -10 13 -12 13 -18 -2 -3 -8 -6 -17 -6 -19 0
-4 63 -26 65 -23 14 18 111 217 102 210 -14 -12 -35 -11 -54 1 -8 5 -13 4 -13
-2z"/>
<path d="M997 2155 c-32 -18 -66 -43 -75 -56 l-16 -24 34 25 c58 42 120 72
135 66 21 -8 19 1 -2 12 -13 7 -34 1 -76 -23z"/>
<path d="M1084 2048 c-33 -38 -54 -72 -54 -90 0 -7 12 7 26 32 14 25 35 55 46
68 12 12 19 22 17 22 -3 0 -18 -15 -35 -32z"/>
<path d="M826 2041 c-7 -11 -5 -101 3 -101 8 0 31 73 25 80 -3 2 -10 -2 -15
-10 -8 -11 -9 -8 -5 13 6 26 2 35 -8 18z"/>
<path d="M1882 2000 c5 -28 8 -72 6 -98 -3 -43 -7 -49 -53 -84 -37 -28 -62
-39 -105 -44 -30 -4 -60 -7 -66 -8 -6 -1 -35 -23 -65 -49 -51 -45 -53 -48 -49
-89 12 -138 5 -183 -47 -279 -2 -4 15 -14 39 -23 60 -22 73 -23 70 -7 -2 10 4
12 23 7 25 -6 35 7 14 20 -6 3 -7 9 -3 13 5 3 14 20 20 36 8 25 7 36 -7 60
-18 31 -26 61 -9 35 8 -13 10 -12 10 3 0 10 16 34 37 53 20 19 33 38 29 42 -5
4 -24 -11 -43 -33 -19 -22 -39 -39 -44 -37 -5 1 -9 -7 -9 -18 0 -11 -7 -20
-15 -20 -19 0 -19 2 0 47 15 36 15 36 -4 19 -11 -10 -22 -30 -24 -45 -2 -15
-5 -8 -6 20 0 26 5 53 14 65 17 23 20 43 3 26 -18 -18 -27 -15 -25 9 1 11 10
25 20 30 10 6 22 22 28 36 5 14 18 27 29 30 16 4 18 8 9 20 -10 12 -8 13 15 9
16 -3 39 -12 52 -21 13 -8 24 -12 24 -8 0 3 11 -4 25 -17 13 -12 22 -26 20
-30 -3 -4 3 -14 13 -21 15 -13 16 -12 3 4 -9 12 -10 17 -2 17 7 0 19 -16 27
-35 19 -46 25 -45 11 1 -6 21 -19 39 -29 42 -10 2 -16 7 -14 11 8 12 -20 39
-54 55 -32 15 -32 16 -7 11 19 -4 26 -2 22 5 -3 5 1 10 10 10 10 0 13 -5 9
-12 -4 -7 -3 -8 5 -4 6 4 15 -2 21 -16 9 -21 10 -20 6 9 -4 27 0 34 29 55 19
12 40 35 46 51 12 29 15 93 6 142 -3 17 -6 36 -6 43 -1 6 -5 12 -10 12 -4 0
-4 -23 1 -50z m-234 -568 c2 -6 -6 -29 -18 -52 -19 -37 -24 -41 -48 -35 -47
12 -52 22 -35 63 24 58 30 62 66 47 17 -7 33 -18 35 -23z"/>
<path d="M1561 1408 c-19 -55 3 -51 27 5 9 22 9 27 -2 27 -8 0 -19 -14 -25
-32z"/>
<path d="M1600 1404 c-6 -14 -10 -30 -10 -35 0 -16 17 -10 23 9 2 9 8 25 12
35 4 10 3 17 -4 17 -6 0 -16 -12 -21 -26z"/>
<path d="M1090 2020 c0 -5 6 -10 13 -10 6 0 1 -6 -12 -13 -14 -6 -26 -19 -29
-27 -4 -12 -2 -13 9 -2 7 6 21 12 30 12 9 0 30 7 45 15 26 13 27 15 7 15 -12
0 -25 5 -28 10 -3 6 -13 10 -21 10 -8 0 -14 -4 -14 -10z"/>
<path d="M1780 2020 c-8 -5 -11 -10 -6 -10 5 0 3 -7 -4 -15 -10 -12 -10 -18 0
-29 15 -19 98 -51 108 -42 11 12 -29 36 -70 43 -51 8 -48 18 8 29 25 5 46 14
47 19 3 14 -64 18 -83 5z"/>
<path d="M1053 1931 c1 -17 8 -21 35 -21 20 0 31 4 27 10 -4 6 -15 8 -26 5
-12 -4 -19 -2 -17 5 2 7 -2 14 -9 17 -7 2 -11 -4 -10 -16z"/>
<path d="M1468 1943 c-15 -4 -27 -33 -15 -33 8 0 67 32 67 36 0 5 -28 3 -52
-3z"/>
<path d="M1750 1920 c0 -8 -8 -10 -21 -7 l-21 6 21 -23 c12 -13 19 -30 16 -38
-4 -9 -2 -19 4 -23 7 -4 8 0 4 11 -4 12 -3 15 5 10 7 -4 12 -14 12 -22 0 -8 5
-12 10 -9 18 11 11 44 -12 56 -21 11 -21 13 -4 19 16 5 16 7 2 19 -12 10 -16
11 -16 1z"/>
<path d="M1800 1908 c24 -26 27 -46 3 -27 -15 12 -16 12 -10 -4 4 -10 7 -28 7
-40 l0 -20 23 21 c13 12 30 22 38 22 11 0 12 2 1 9 -11 6 -10 10 5 16 15 6 11
10 -22 25 -55 25 -70 25 -45 -2z"/>
<path d="M1020 1870 c-1 -25 -2 -49 -1 -54 1 -4 -4 -15 -11 -24 -8 -10 -9 -13
-1 -9 6 4 13 1 16 -5 7 -22 12 65 6 102 -6 35 -6 35 -9 -10z"/>
<path d="M1467 1885 c-16 -14 -22 -25 -14 -25 7 0 24 11 37 25 30 32 14 32
-23 0z"/>
<path d="M1053 1874 c0 -18 3 -22 10 -15 23 23 29 10 7 -14 -24 -25 -16 -35
10 -12 8 6 7 3 -3 -9 -9 -11 -17 -26 -17 -32 0 -6 -7 -18 -16 -26 -24 -25 -3
-18 43 13 23 16 39 31 36 35 -4 3 0 6 8 7 8 0 3 5 -11 10 -23 9 -24 11 -8 23
16 12 16 14 -3 29 -30 26 -56 22 -56 -9z"/>
<path d="M1185 1803 c-60 -13 -93 -30 -122 -60 -39 -39 -41 -58 -10 -85 12
-11 16 -17 9 -13 -22 11 -37 -19 -39 -81 -1 -54 -6 -68 -45 -125 -24 -35 -59
-91 -78 -124 -18 -33 -46 -79 -62 -102 -33 -49 -47 -101 -29 -112 7 -4 13 -18
14 -29 1 -12 4 -22 8 -22 9 0 34 -62 31 -77 -2 -7 2 -13 8 -13 6 0 9 4 5 9 -3
5 -1 12 5 16 6 4 8 11 5 16 -4 5 -8 18 -10 29 -2 11 -15 32 -29 47 -31 34 -33
57 -5 81 11 9 29 35 40 57 22 45 41 78 50 85 4 3 9 14 13 26 3 12 16 26 29 32
12 6 16 11 10 11 -25 2 -13 20 17 26 17 4 27 11 24 16 -4 6 -11 6 -20 -2 -8
-7 -14 -7 -14 -1 0 5 7 15 15 22 13 11 20 9 40 -10 13 -13 22 -26 20 -30 -3
-4 15 -23 40 -41 59 -45 58 -54 -10 -103 -22 -16 -20 -20 13 -30 12 -4 22 -3
22 3 0 5 -8 11 -17 14 -13 2 -8 7 15 13 17 5 32 14 33 19 0 10 48 40 54 33 1
-2 -6 -39 -17 -83 -10 -44 -17 -89 -14 -99 3 -11 -2 -25 -12 -32 -16 -12 -16
-14 3 -28 11 -8 23 -16 26 -16 4 0 10 35 15 78 4 42 8 80 10 85 1 4 2 21 3 38
0 16 5 28 10 25 5 -4 11 0 14 6 2 8 -24 29 -60 51 -35 21 -80 55 -99 75 -41
42 -71 101 -56 111 6 3 9 27 7 54 -2 26 0 47 5 47 5 0 16 3 26 7 13 5 16 3 11
-10 -8 -22 75 -82 140 -102 62 -19 71 -19 76 3 4 16 5 16 6 0 1 -19 16 -24 26
-8 3 5 -4 19 -16 31 -17 17 -19 23 -8 30 25 16 -20 10 -52 -7 -57 -29 -113 3
-158 93 -28 57 -27 66 14 102 45 39 90 42 106 7 7 -14 17 -22 25 -19 8 3 14
-1 14 -8 0 -12 2 -12 9 0 5 7 14 12 21 9 10 -3 9 -8 -2 -19 -9 -8 -23 -29 -32
-47 -15 -29 -21 -32 -62 -32 -28 0 -43 -4 -39 -10 8 -14 71 -13 111 2 27 9 38
9 59 -2 23 -12 28 -12 35 0 6 10 -2 20 -31 38 -40 24 -44 29 -31 48 5 8 23 2
59 -18 l52 -29 -16 -35 c-17 -36 -31 -41 -64 -24 -14 8 -27 7 -48 -5 -17 -8
-49 -15 -73 -16 -39 0 -41 -1 -19 -12 18 -9 33 -8 69 6 45 16 47 16 69 -5 l23
-21 24 23 c16 14 32 20 43 17 16 -6 16 -5 2 5 -13 9 -14 16 -5 41 9 25 8 31
-8 41 -10 6 -33 21 -51 33 -19 12 -36 19 -39 15 -3 -3 -6 0 -6 6 0 7 -13 12
-30 12 -23 0 -33 7 -45 30 -9 17 -19 29 -23 29 -4 -1 -16 -3 -27 -6z"/>
<path d="M741 1793 c-1 -6 -10 -15 -21 -18 -23 -7 -27 -25 -6 -25 18 0 39 26
33 42 -4 9 -6 9 -6 1z"/>
<path d="M1175 1718 c7 -22 31 -48 46 -48 4 0 9 9 12 19 3 14 -2 21 -19 25
-13 4 -24 11 -24 16 0 6 -5 10 -11 10 -6 0 -8 -9 -4 -22z"/>
<path d="M2147 1714 c-3 -16 -3 -33 1 -38 9 -16 23 35 13 51 -6 12 -9 9 -14
-13z"/>
<path d="M2210 1714 c-13 -33 -12 -65 1 -84 8 -11 9 -6 5 21 -4 20 -2 48 4 63
5 14 7 26 5 26 -3 0 -10 -12 -15 -26z"/>
<path d="M1717 1672 c11 -17 39 -52 62 -77 28 -30 43 -56 45 -78 4 -41 14 -64
32 -71 11 -4 14 5 14 42 0 42 -5 53 -39 91 -22 24 -39 47 -38 50 4 17 -26 52
-40 47 -9 -4 -25 2 -36 11 -19 18 -19 18 0 -15z"/>
<path d="M614 1681 c4 -5 0 -12 -6 -14 -10 -4 -10 -6 -1 -6 7 -1 10 -8 7 -16
-4 -8 -2 -15 4 -15 11 0 24 39 16 52 -3 4 -10 8 -15 8 -6 0 -8 -4 -5 -9z"/>
<path d="M1653 1644 c3 -4 2 -15 -4 -25 -5 -11 -8 -19 -5 -19 8 0 76 41 76 46
0 2 -16 4 -37 4 -20 0 -33 -3 -30 -6z"/>
<path d="M1360 1500 c0 -5 6 -10 14 -10 8 0 16 -10 19 -22 3 -20 4 -21 11 -5
5 10 3 23 -4 32 -14 17 -40 20 -40 5z"/>
<path d="M1800 1460 c1 -8 5 -34 9 -57 5 -27 4 -46 -2 -52 -8 -8 -6 -11 5 -11
11 0 23 -21 39 -67 12 -38 22 -70 22 -73 -1 -3 8 -22 18 -42 10 -21 19 -45 19
-56 0 -10 5 -23 12 -30 7 -7 8 -12 4 -12 -5 0 -1 -11 8 -25 9 -14 16 -41 14
-60 -1 -19 3 -40 9 -46 10 -10 9 -92 -2 -126 -3 -7 -1 -13 4 -13 11 0 24 48
17 59 -3 5 -1 22 4 40 5 17 5 31 0 31 -4 0 -8 21 -8 48 0 26 -2 54 -4 62 -9
33 -42 116 -50 125 -4 5 -8 16 -8 25 0 27 -69 227 -90 262 -11 18 -20 26 -20
18z"/>
<path d="M1307 1414 c-11 -11 3 -24 18 -17 10 3 15 -2 15 -17 0 -11 5 -18 10
-15 14 9 12 21 -6 39 -17 17 -27 20 -37 10z"/>
<path d="M1475 1329 c10 -15 -54 -40 -119 -46 l-64 -6 -6 -58 c-4 -33 -5 -63
-2 -68 3 -5 30 -12 61 -16 30 -3 58 -11 61 -17 5 -7 0 -9 -14 -6 -12 4 -25 1
-29 -4 -4 -8 6 -9 31 -5 20 3 35 3 33 -1 -3 -4 2 -23 9 -42 14 -33 14 -34 9
-5 -2 17 -10 72 -16 124 -12 88 -11 94 7 108 10 7 25 12 34 11 21 -4 38 -72
39 -156 1 -46 5 -71 11 -67 6 4 10 -5 10 -19 0 -14 -3 -26 -7 -26 -9 0 -9 -48
0 -70 3 -8 8 -24 10 -35 4 -17 12 105 8 127 0 4 -2 46 -2 92 -1 47 -6 83 -10
80 -5 -3 -8 5 -7 18 1 13 -2 34 -7 48 l-7 25 28 -25 29 -25 -29 32 c-25 28
-74 54 -61 32z m-84 -89 c5 0 4 -6 -2 -13 -7 -7 -25 -11 -42 -9 -29 5 -29 6
-11 19 10 7 25 11 32 8 8 -3 18 -5 23 -5z m-13 -57 c2 -9 -7 -13 -27 -13 -32
0 -50 15 -29 24 21 8 51 2 56 -11z"/>
<path d="M1615 1277 c11 -7 38 -19 60 -28 22 -8 39 -21 37 -27 -1 -8 6 -10 23
-6 15 4 32 1 43 -7 15 -12 16 -12 5 2 -7 9 -32 24 -55 33 -24 10 -58 24 -76
32 -40 17 -64 18 -37 1z"/>
<path d="M1580 1274 c0 -20 46 -64 78 -75 20 -6 56 -22 80 -35 27 -15 42 -19
42 -11 0 6 -24 23 -53 37 -28 13 -73 39 -99 57 -27 18 -48 30 -48 27z"/>
<path d="M1046 1198 c-9 -12 -18 -19 -22 -15 -10 10 -54 -61 -48 -77 3 -8 13
-12 26 -8 14 3 19 1 15 -6 -4 -5 -2 -12 5 -14 6 -2 12 -21 12 -41 1 -20 4 -37
9 -37 4 0 7 19 7 43 -1 44 -21 83 -39 73 -5 -4 -12 -2 -15 3 -8 12 60 55 73
46 6 -3 15 4 22 16 9 17 8 23 -2 30 -21 13 -26 11 -43 -13z"/>
<path d="M1656 1163 c11 -16 37 -64 59 -107 33 -64 46 -80 65 -81 14 -1 33 -5
42 -9 13 -6 17 -3 15 13 -1 11 -7 23 -15 26 -7 2 -11 1 -8 -3 3 -5 -5 -8 -16
-7 -12 1 -24 8 -26 16 -3 8 -11 21 -19 31 -8 9 -16 22 -17 30 -3 18 -41 79
-62 101 -27 27 -38 20 -18 -10z"/>
<path d="M1256 1113 c-4 -9 -9 -37 -12 -62 -3 -26 -9 -65 -13 -88 -5 -24 -4
-46 1 -51 6 -6 1 -11 -11 -15 -12 -3 -19 -1 -16 3 3 5 -10 20 -29 35 -32 24
-33 28 -23 60 9 30 13 33 31 24 20 -10 20 -10 2 5 -11 9 -23 16 -26 16 -10 0
-30 -48 -30 -74 0 -22 38 -65 76 -84 30 -16 45 16 45 94 0 56 3 64 17 60 24
-7 144 -26 162 -25 29 1 -46 27 -97 34 -58 7 -69 17 -64 57 3 31 -4 37 -13 11z"/>
<path d="M1756 935 c-8 -22 -8 -22 8 -28 11 -4 13 -1 9 10 -5 12 -3 14 7 8 8
-5 11 -3 8 5 -7 21 -25 23 -32 5z"/>
<path d="M1706 859 c-9 -48 -6 -129 7 -173 11 -35 12 -26 12 83 0 119 -7 151
-19 90z"/>
<path d="M1015 869 c4 -5 2 -15 -3 -22 -5 -7 -13 -23 -17 -37 -6 -22 -5 -23 7
-10 8 8 19 27 26 42 9 21 8 27 -4 32 -9 3 -12 2 -9 -5z"/>
<path d="M1758 850 c3 -21 8 -28 14 -22 12 12 7 44 -8 49 -7 2 -9 -8 -6 -27z"/>
<path d="M1745 745 c5 -128 24 -168 24 -54 1 47 -3 89 -8 95 -5 5 -12 18 -15
29 -3 11 -4 -20 -1 -70z"/>
<path d="M920 727 c0 -5 119 -128 264 -274 146 -146 262 -257 260 -245 -5 17
-132 146 -451 456 -40 39 -73 67 -73 63z"/>
<path d="M1711 618 c-26 -41 -39 -160 -26 -233 7 -40 6 -40 -74 -118 -72 -69
-99 -84 -134 -78 -5 1 -6 -3 -2 -9 3 -5 18 -10 32 -10 19 0 49 23 114 87 96
93 103 109 77 180 -10 27 -10 38 0 53 7 11 12 36 12 55 0 20 7 49 15 65 18 34
7 41 -14 8z"/>
<path d="M1553 560 c0 -36 2 -50 4 -32 2 17 2 47 0 65 -2 17 -4 3 -4 -33z"/>
<path d="M1896 540 c-18 -6 -18 -7 5 -13 22 -7 22 -8 7 -18 -24 -14 -23 -28 2
-26 20 1 24 18 12 48 -5 11 -13 14 -26 9z"/>
</g>
</svg>
